<?xml version="1.0" encoding="iso-8859-1"?>
<!-- Uploaded to: SVG Repo, www.svgrepo.com, Generator: SVG Repo Mixer Tools -->
<!DOCTYPE svg PUBLIC "-//W3C//DTD SVG 1.1//EN" "http://www.w3.org/Graphics/SVG/1.1/DTD/svg11.dtd">
<svg fill="#000000" height="800px" width="800px" version="1.1" id="Capa_1" xmlns="http://www.w3.org/2000/svg" xmlns:xlink="http://www.w3.org/1999/xlink" 
	 viewBox="0 0 477.778 477.778" xml:space="preserve">
<path d="M389.532,0H88.246C74.326,0,63.035,11.291,63.035,25.211v427.356c0,13.919,11.291,25.211,25.211,25.211h301.287
	c13.919,0,25.211-11.292,25.211-25.211V25.211C414.743,11.291,403.452,0,389.532,0z M126.754,58.82
	c0-9.028,7.324-16.354,16.345-16.354h191.578c9.036,0,16.362,7.325,16.362,16.354v199.758c0,9.028-7.326,16.354-16.362,16.354
	H143.099c-9.02,0-16.345-7.326-16.345-16.354V58.82z M211.391,384.68c0,4.424-3.577,8.009-8.009,8.009h-18.399v18.407
	c0,4.424-3.593,8.009-8.009,8.009h-23.795c-4.434,0-8.025-3.585-8.025-8.009v-18.407h-18.399c-4.432,0-8.011-3.585-8.011-8.009
	v-23.795c0-4.426,3.578-8.011,8.011-8.011h18.399v-18.414c0-4.418,3.591-8.011,8.025-8.011h23.795c4.416,0,8.009,3.593,8.009,8.011
	v18.414h18.399c4.432,0,8.009,3.585,8.009,8.011V384.68z M273.571,419.105c-11.882,0-21.524-9.643-21.524-21.532
	c0-11.89,9.642-21.526,21.524-21.526c11.898,0,21.541,9.635,21.541,21.526C295.112,409.462,285.469,419.105,273.571,419.105z
	 M333.403,367.051c-11.882,0-21.525-9.635-21.525-21.526s9.643-21.532,21.525-21.532c11.897,0,21.54,9.642,21.54,21.532
	S345.3,367.051,333.403,367.051z"/>
</svg>