<?xml version="1.0" ?><svg fill="none" height="24" viewBox="0 0 24 24" width="24" xmlns="http://www.w3.org/2000/svg"><path clip-rule="evenodd" d="M12 10C11.4477 10 11 10.4477 11 11C11 11.5523 11.4477 12 12 12C12.5523 12 13 11.5523 13 11C13 10.4477 12.5523 10 12 10ZM10 11C10 9.89543 10.8954 9 12 9C13.1046 9 14 9.89543 14 11C14 12.1046 13.1046 13 12 13C10.8954 13 10 12.1046 10 11Z" fill="black" fill-rule="evenodd"/><path clip-rule="evenodd" d="M20 2.5C19.1716 2.5 18.5 3.17157 18.5 4C18.5 4.82843 19.1716 5.5 20 5.5C20.8284 5.5 21.5 4.82843 21.5 4C21.5 3.17157 20.8284 2.5 20 2.5ZM17.5 4C17.5 2.61929 18.6193 1.5 20 1.5C21.3807 1.5 22.5 2.61929 22.5 4C22.5 5.38071 21.3807 6.5 20 6.5C18.6193 6.5 17.5 5.38071 17.5 4Z" fill="black" fill-rule="evenodd"/><path clip-rule="evenodd" d="M4 2.5C3.17157 2.5 2.5 3.17157 2.5 4C2.5 4.82843 3.17157 5.5 4 5.5C4.82843 5.5 5.5 4.82843 5.5 4C5.5 3.17157 4.82843 2.5 4 2.5ZM1.5 4C1.5 2.61929 2.61929 1.5 4 1.5C5.38071 1.5 6.5 2.61929 6.5 4C6.5 5.38071 5.38071 6.5 4 6.5C2.61929 6.5 1.5 5.38071 1.5 4Z" fill="black" fill-rule="evenodd"/><path clip-rule="evenodd" d="M4 18.5C3.17157 18.5 2.5 19.1716 2.5 20C2.5 20.8284 3.17157 21.5 4 21.5C4.82843 21.5 5.5 20.8284 5.5 20C5.5 19.1716 4.82843 18.5 4 18.5ZM1.5 20C1.5 18.6193 2.61929 17.5 4 17.5C5.38071 17.5 6.5 18.6193 6.5 20C6.5 21.3807 5.38071 22.5 4 22.5C2.61929 22.5 1.5 21.3807 1.5 20Z" fill="black" fill-rule="evenodd"/><path clip-rule="evenodd" d="M20 18.5C19.1716 18.5 18.5 19.1716 18.5 20C18.5 20.8284 19.1716 21.5 20 21.5C20.8284 21.5 21.5 20.8284 21.5 20C21.5 19.1716 20.8284 18.5 20 18.5ZM17.5 20C17.5 18.6193 18.6193 17.5 20 17.5C21.3807 17.5 22.5 18.6193 22.5 20C22.5 21.3807 21.3807 22.5 20 22.5C18.6193 22.5 17.5 21.3807 17.5 20Z" fill="black" fill-rule="evenodd"/><path clip-rule="evenodd" d="M12.0005 13C10.4291 13 9.09834 14.036 8.65645 15.4635L7.70117 15.1677C8.26902 13.3334 9.97841 12 12.0005 12C14.0227 12 15.7321 13.3334 16.2999 15.1677L15.3447 15.4635C14.9028 14.036 13.572 13 12.0005 13Z" fill="black" fill-rule="evenodd"/><path clip-rule="evenodd" d="M12 7.5C9.51472 7.5 7.5 9.51472 7.5 12C7.5 14.4853 9.51472 16.5 12 16.5C14.4853 16.5 16.5 14.4853 16.5 12C16.5 9.51472 14.4853 7.5 12 7.5ZM6.5 12C6.5 8.96243 8.96243 6.5 12 6.5C15.0376 6.5 17.5 8.96243 17.5 12C17.5 15.0376 15.0376 17.5 12 17.5C8.96243 17.5 6.5 15.0376 6.5 12Z" fill="black" fill-rule="evenodd"/><path clip-rule="evenodd" d="M8.85359 15.8536L5.85359 18.8536L5.14648 18.1464L8.14648 15.1464L8.85359 15.8536Z" fill="black" fill-rule="evenodd"/><path clip-rule="evenodd" d="M15.8536 15.1464L18.8536 18.1464L18.1465 18.8536L15.1465 15.8536L15.8536 15.1464Z" fill="black" fill-rule="evenodd"/><path clip-rule="evenodd" d="M15.1465 8.14645L18.1465 5.14645L18.8536 5.85355L15.8536 8.85355L15.1465 8.14645Z" fill="black" fill-rule="evenodd"/><path clip-rule="evenodd" d="M8.14648 8.85355L5.14648 5.85355L5.85359 5.14645L8.85359 8.14645L8.14648 8.85355Z" fill="black" fill-rule="evenodd"/></svg>